<?xml version="1.0" encoding="utf-8"?>
<!-- Generator: Adobe Illustrator 24.2.1, SVG Export Plug-In . SVG Version: 6.00 Build 0)  -->
<svg version="1.1" id="Warstwa_1" xmlns="http://www.w3.org/2000/svg" xmlns:xlink="http://www.w3.org/1999/xlink" x="0px" y="0px"
	 viewBox="0 0 597.24 165.36" style="enable-background:new 0 0 597.24 165.36;" xml:space="preserve">
<style type="text/css">
	.st0{fill:#014E97;}
</style>
<path class="st0" d="M56.87,131.33h-9.37V38.75h9.37v50.06L93.8,56.08h12.81L69.25,89.02l41.02,42.31H98L62.58,95.7l-5.71,5.17
	V131.33z"/>
<path class="st0" d="M155.57,61.25c-12.38,0.32-26.27,10.77-26.27,24.87v45.22h-9.37V55.97h9.37v9.9
	c0.86-1.18,10.34-12.6,26.38-12.92c14.1-0.32,31.22,8.72,35.1,27.35h-9.69C177.21,66.63,166.66,60.92,155.57,61.25z"/>
<path class="st0" d="M235.07,52.96c24.76,0,39.51,19.06,39.51,40.59c0,20.67-15.72,39.3-39.51,39.19
	c-19.92-0.11-39.3-17.33-39.3-41.23C195.77,70.08,212.99,52.96,235.07,52.96z M235.82,124.55c14.64,0,29.07-11.73,29.07-32.4
	c0-19.81-16.15-30.9-29.07-30.9c-13.67,0-30.36,10.34-30.36,30.25C205.46,110.12,220.32,124.55,235.82,124.55z M249.71,30.46
	l-10.98,15.29h-6.57l4.09-15.29H249.71z"/>
<path class="st0" d="M341.7,93.87v3.55c0,7.97-1.29,17.44-6.35,24.12c-5.92,7.75-15.4,10.98-24.22,11.2
	c-15.83,0.43-30.36-10.01-30.25-27.35h8.61c0.43,13.67,10.77,19.7,21.1,19.27c4.95-0.22,11.41-1.29,16.26-6.78
	c4.09-4.09,5.92-11.2,5.92-20.56v-3.45l-0.22-30.36l-0.32,0.32h-51.35v-7.75h60.29L341.7,93.87z M327.38,37.99
	c0-4.09,3.34-7.43,7.21-7.43c4.09,0,7.43,3.34,7.43,7.43c0,3.88-3.55,7.21-7.43,7.21C330.72,45.21,327.38,41.87,327.38,37.99z"/>
<path class="st0" d="M345.9,123.26h49.2v8.07h-49.2V123.26z"/>
<path class="st0" d="M466.96,56.08v9.26l-50.17,58.03h50.17v8.07l-61.26-0.22v-8.72l51.03-58.24h-51.03v-8.18H466.96z M430.36,37.99
	c0-4.09,3.34-7.43,7.21-7.43c4.09,0,7.43,3.34,7.43,7.43c0,3.88-3.34,7.21-7.43,7.21C433.7,45.21,430.36,41.87,430.36,37.99z"/>
<path class="st0" d="M511.41,53.06c20.35,0.32,37.25,16.58,37.25,39.19c0,1.51,0,2.58-0.32,4.09h-66.21
	c1.08,19.81,15.72,28.42,29.28,29.07c10.23,0,18.19-5.6,23.69-13.24l7.21,5.28c-6.67,9.04-17.87,16.58-31.11,16.36
	c-23.69-0.32-38.97-18.52-39.08-41.02C472.01,66.95,491.6,52.74,511.41,53.06z M538.86,88.16c-2.15-17.87-15.07-27.02-27.88-26.91
	c-13.67,0.11-26.91,9.04-28.85,26.91H538.86z"/>
</svg>
